<svg width="43" height="49" viewBox="0 0 43 49" fill="none" xmlns="http://www.w3.org/2000/svg">
<path fill-rule="evenodd" clip-rule="evenodd" d="M14.3358 39.839C15.285 39.839 16.0545 40.6083 16.0545 41.5577C16.0545 41.9547 16.155 42.3646 16.3727 42.7696C16.592 43.177 16.9311 43.5799 17.3979 43.9395C17.865 44.299 18.4413 44.6006 19.1015 44.8112C19.7613 45.0218 20.4788 45.133 21.2099 45.133C21.9407 45.133 22.6582 45.0218 23.318 44.8112C23.9782 44.6006 24.5546 44.299 25.0216 43.9395C25.4884 43.5799 25.8276 43.177 26.0469 42.7696C26.2646 42.3646 26.365 41.9547 26.365 41.5577C26.365 40.6083 27.1345 39.839 28.0837 39.839C29.0329 39.839 29.8025 40.6083 29.8025 41.5577C29.8025 42.5512 29.5474 43.5178 29.0742 44.3978C28.6026 45.2746 27.929 46.0391 27.1192 46.6629C26.3095 47.2862 25.3704 47.7647 24.3628 48.0862C23.3547 48.4078 22.2842 48.5705 21.2099 48.5705C20.1353 48.5705 19.0649 48.4078 18.0568 48.0862C17.0491 47.7647 16.11 47.2862 15.3004 46.6629C14.4905 46.0391 13.8169 45.2746 13.3453 44.3978C12.8721 43.5178 12.617 42.5512 12.617 41.5577C12.617 40.6083 13.3865 39.839 14.3358 39.839Z" fill="black"/>
<path fill-rule="evenodd" clip-rule="evenodd" d="M12.9971 2.43107C18.1716 -0.143895 24.2349 -0.231483 29.4814 2.19292L29.9503 2.40959C35.448 4.94998 38.9678 10.454 38.9678 16.5101V19.5137C38.9678 21.928 39.4939 24.3132 40.5096 26.5034L41.1162 27.8114C43.902 33.8186 40.274 40.8402 33.7625 42.0438L33.3954 42.1117C25.3399 43.6008 17.0796 43.6008 9.02404 42.1117C2.42486 40.892 -1.06638 33.591 2.12697 27.6886L2.64582 26.7295C3.92659 24.3622 4.59727 21.7131 4.59727 19.0216V15.9936C4.59727 10.2452 7.85077 4.99207 12.9971 2.43107ZM28.0395 5.31336C23.7394 3.32628 18.7697 3.39808 14.5286 5.50857C10.55 7.48845 8.03477 11.5496 8.03477 15.9936V19.0216C8.03477 22.2844 7.22176 25.4957 5.6692 28.3653L5.15036 29.3244C3.06756 33.1739 5.34465 37.936 9.64881 38.7315C17.2914 40.144 25.1282 40.144 32.7707 38.7315L33.1378 38.6636C37.4411 37.8682 39.8388 33.2276 37.9977 29.2575L37.3911 27.9496C36.1653 25.3062 35.5303 22.4274 35.5303 19.5137V16.5101C35.5303 11.7942 32.7894 7.50825 28.5084 5.53004L28.0395 5.31336Z" fill="black"/>
</svg>
