<svg width="90" height="90" viewBox="0 0 90 90" fill="none" xmlns="http://www.w3.org/2000/svg">
<g clip-path="url(#clip0_27_6)">
<path d="M22.52 70.1156C22.5687 66.4227 24.0693 62.8975 26.6973 60.3026C29.3253 57.7077 32.8693 56.2518 36.5626 56.25H53.4376C57.1307 56.2519 60.6747 57.7078 63.3027 60.3027C65.9307 62.8975 67.4314 66.4228 67.4801 70.1156C61.3119 75.6739 53.3032 78.75 45.0001 78.75C36.697 78.75 28.6882 75.6739 22.52 70.1156ZM57.6563 35.1562C57.6563 37.6594 56.914 40.1064 55.5233 42.1877C54.1327 44.269 52.156 45.8912 49.8434 46.8491C47.5308 47.807 44.986 48.0577 42.5309 47.5693C40.0759 47.081 37.8207 45.8756 36.0507 44.1056C34.2807 42.3356 33.0753 40.0804 32.587 37.6254C32.0986 35.1703 32.3493 32.6255 33.3072 30.3129C34.2651 28.0003 35.8873 26.0236 37.9686 24.633C40.0499 23.2423 42.4969 22.5 45.0001 22.5C48.3567 22.5 51.5759 23.8334 53.9494 26.2069C56.3229 28.5804 57.6563 31.7996 57.6563 35.1562Z" fill="#CDCDCD"/>
<path d="M75.2313 70.1156C79.2693 65.256 82.0775 59.4953 83.4185 53.3209C84.7595 47.1465 84.5937 40.74 82.9352 34.6432C81.2767 28.5464 78.1743 22.9386 73.8904 18.2943C69.6065 13.65 64.2671 10.1057 58.3238 7.96125C52.3805 5.81677 46.0081 5.13517 39.7457 5.97411C33.4833 6.81305 27.5151 9.14786 22.3458 12.781C17.1765 16.4142 12.9582 21.2389 10.0478 26.847C7.13732 32.4551 5.6203 38.6817 5.62501 45C5.62721 54.1862 8.86447 63.0782 14.7687 70.1156L14.7125 70.1623C14.9094 70.4 15.1344 70.603 15.3374 70.8351C15.5905 71.1264 15.8617 71.3976 16.1249 71.6811C16.9124 72.5341 17.7207 73.3551 18.5718 74.1279C18.8291 74.3617 19.096 74.5813 19.3593 74.8077C20.2593 75.5837 21.1829 76.3186 22.1437 77.0051C22.2677 77.0929 22.3777 77.2 22.5025 77.2881V77.2523C29.0897 81.8878 36.9478 84.3756 45.0025 84.3756C53.0572 84.3756 60.9154 81.8878 67.5025 77.2523V77.2875C67.6274 77.1995 67.7374 77.0923 67.8614 77.0046C68.821 76.318 69.7458 75.5831 70.6458 74.8072C70.909 74.5822 71.1759 74.3611 71.4333 74.1274C72.2841 73.3542 73.0927 72.5333 73.8802 71.6805C74.1426 71.3976 74.4129 71.1259 74.6677 70.8345C74.8699 70.6025 75.0957 70.3994 75.2926 70.1618L75.2313 70.1156ZM45 22.5C47.5032 22.5 49.9501 23.2423 52.0314 24.633C54.1128 26.0237 55.7349 28.0003 56.6929 30.3129C57.6508 32.6255 57.9014 35.1703 57.4131 37.6254C56.9247 40.0804 55.7193 42.3356 53.9493 44.1056C52.1793 45.8756 49.9242 47.081 47.4691 47.5693C45.0141 48.0577 42.4693 47.807 40.1567 46.8491C37.844 45.8912 35.8674 44.269 34.4767 42.1877C33.086 40.1064 32.3438 37.6594 32.3438 35.1563C32.3438 31.7996 33.6772 28.5804 36.0507 26.2069C38.4242 23.8334 41.6434 22.5 45 22.5ZM22.52 70.1156C22.5686 66.4227 24.0692 62.8974 26.6972 60.3025C29.3252 57.7076 32.8693 56.2518 36.5625 56.25H53.4375C57.1307 56.2518 60.6747 57.7077 63.3027 60.3026C65.9307 62.8975 67.4314 66.4227 67.48 70.1156C61.3118 75.6739 53.3031 78.75 45 78.75C36.6969 78.75 28.6882 75.6739 22.52 70.1156Z" fill="white"/>
</g>
<defs>
<clipPath id="clip0_27_6">
<rect width="90" height="90" fill="white"/>
</clipPath>
</defs>
</svg>
